<svg width="1440" height="61" viewBox="0 0 1440 61" fill="none" xmlns="http://www.w3.org/2000/svg">
<path d="M919.84 34.48H916.96V32.08H919.84V29.2H922.24V32.08H925.12V34.48H922.24V37.36H919.84V34.48ZM934.022 25.84H927.038V23.2H938.102V24.04L932.63 40H929.318L934.022 25.84ZM950.522 40.24L947.834 38.704C949.498 37.008 950.794 35.296 951.722 33.568C951.482 33.616 951.21 33.64 950.906 33.64C949.29 33.64 947.97 33.16 946.946 32.2C945.938 31.224 945.434 29.936 945.434 28.336C945.434 26.736 945.938 25.44 946.946 24.448C947.986 23.456 949.33 22.96 950.978 22.96C952.658 22.96 953.994 23.464 954.986 24.472C955.978 25.48 956.474 26.864 956.474 28.624C956.474 30.528 955.906 32.528 954.77 34.624C953.65 36.688 952.234 38.56 950.522 40.24ZM952.586 30.28C953.018 29.784 953.234 29.144 953.234 28.36C953.234 27.576 953.018 26.944 952.586 26.464C952.186 25.968 951.642 25.72 950.954 25.72C950.282 25.72 949.73 25.968 949.298 26.464C948.882 26.96 948.674 27.592 948.674 28.36C948.674 29.128 948.882 29.768 949.298 30.28C949.73 30.76 950.282 31 950.954 31C951.642 31 952.186 30.76 952.586 30.28ZM958.112 40V37.48L965.168 30.424C965.616 29.976 965.84 29.328 965.84 28.48C965.84 27.68 965.624 27.024 965.192 26.512C964.776 26 964.232 25.744 963.56 25.744C962.888 25.744 962.336 26 961.904 26.512C961.488 27.024 961.28 27.68 961.28 28.48H958.04C958.04 26.832 958.544 25.504 959.552 24.496C960.576 23.472 961.912 22.96 963.56 22.96C965.208 22.96 966.536 23.472 967.544 24.496C968.568 25.504 969.08 26.832 969.08 28.48C969.08 30.016 968.496 31.368 967.328 32.536L962.504 37.36H969.08V40H958.112ZM972.474 37.864C971.418 36.248 970.89 34.16 970.89 31.6C970.89 29.024 971.418 26.944 972.474 25.36C973.546 23.76 974.938 22.96 976.65 22.96C978.362 22.96 979.746 23.76 980.802 25.36C981.874 26.928 982.41 29.008 982.41 31.6C982.41 34.176 981.874 36.264 980.802 37.864C979.746 39.448 978.362 40.24 976.65 40.24C974.954 40.24 973.562 39.448 972.474 37.864ZM974.826 27.352C974.362 28.456 974.13 29.872 974.13 31.6C974.13 33.328 974.362 34.744 974.826 35.848C975.29 36.936 975.898 37.48 976.65 37.48C977.402 37.48 978.01 36.936 978.474 35.848C978.938 34.744 979.17 33.328 979.17 31.6C979.17 29.872 978.938 28.456 978.474 27.352C978.01 26.264 977.402 25.72 976.65 25.72C975.898 25.72 975.29 26.264 974.826 27.352ZM991.435 37.864C990.379 36.248 989.851 34.16 989.851 31.6C989.851 29.024 990.379 26.944 991.435 25.36C992.507 23.76 993.899 22.96 995.611 22.96C997.323 22.96 998.707 23.76 999.763 25.36C1000.83 26.928 1001.37 29.008 1001.37 31.6C1001.37 34.176 1000.83 36.264 999.763 37.864C998.707 39.448 997.323 40.24 995.611 40.24C993.915 40.24 992.523 39.448 991.435 37.864ZM993.787 27.352C993.323 28.456 993.091 29.872 993.091 31.6C993.091 33.328 993.323 34.744 993.787 35.848C994.251 36.936 994.859 37.48 995.611 37.48C996.363 37.48 996.971 36.936 997.435 35.848C997.899 34.744 998.131 33.328 998.131 31.6C998.131 29.872 997.899 28.456 997.435 27.352C996.971 26.264 996.363 25.72 995.611 25.72C994.859 25.72 994.251 26.264 993.787 27.352ZM1004.86 37.864C1003.81 36.248 1003.28 34.16 1003.28 31.6C1003.28 29.024 1003.81 26.944 1004.86 25.36C1005.94 23.76 1007.33 22.96 1009.04 22.96C1010.75 22.96 1012.14 23.76 1013.19 25.36C1014.26 26.928 1014.8 29.008 1014.8 31.6C1014.8 34.176 1014.26 36.264 1013.19 37.864C1012.14 39.448 1010.75 40.24 1009.04 40.24C1007.34 40.24 1005.95 39.448 1004.86 37.864ZM1007.22 27.352C1006.75 28.456 1006.52 29.872 1006.52 31.6C1006.52 33.328 1006.75 34.744 1007.22 35.848C1007.68 36.936 1008.29 37.48 1009.04 37.48C1009.79 37.48 1010.4 36.936 1010.86 35.848C1011.33 34.744 1011.56 33.328 1011.56 31.6C1011.56 29.872 1011.33 28.456 1010.86 27.352C1010.4 26.264 1009.79 25.72 1009.04 25.72C1008.29 25.72 1007.68 26.264 1007.22 27.352ZM1018.29 37.864C1017.24 36.248 1016.71 34.16 1016.71 31.6C1016.71 29.024 1017.24 26.944 1018.29 25.36C1019.37 23.76 1020.76 22.96 1022.47 22.96C1024.18 22.96 1025.57 23.76 1026.62 25.36C1027.69 26.928 1028.23 29.008 1028.23 31.6C1028.23 34.176 1027.69 36.264 1026.62 37.864C1025.57 39.448 1024.18 40.24 1022.47 40.24C1020.77 40.24 1019.38 39.448 1018.29 37.864ZM1020.65 27.352C1020.18 28.456 1019.95 29.872 1019.95 31.6C1019.95 33.328 1020.18 34.744 1020.65 35.848C1021.11 36.936 1021.72 37.48 1022.47 37.48C1023.22 37.48 1023.83 36.936 1024.29 35.848C1024.76 34.744 1024.99 33.328 1024.99 31.6C1024.99 29.872 1024.76 28.456 1024.29 27.352C1023.83 26.264 1023.22 25.72 1022.47 25.72C1021.72 25.72 1021.11 26.264 1020.65 27.352ZM1036.38 34.72H1030.14V32.32H1036.38V34.72ZM1039.88 37.864C1038.82 36.248 1038.3 34.16 1038.3 31.6C1038.3 29.024 1038.82 26.944 1039.88 25.36C1040.95 23.76 1042.34 22.96 1044.06 22.96C1045.77 22.96 1047.15 23.76 1048.21 25.36C1049.28 26.928 1049.82 29.008 1049.82 31.6C1049.82 34.176 1049.28 36.264 1048.21 37.864C1047.15 39.448 1045.77 40.24 1044.06 40.24C1042.36 40.24 1040.97 39.448 1039.88 37.864ZM1042.23 27.352C1041.77 28.456 1041.54 29.872 1041.54 31.6C1041.54 33.328 1041.77 34.744 1042.23 35.848C1042.7 36.936 1043.3 37.48 1044.06 37.48C1044.81 37.48 1045.42 36.936 1045.88 35.848C1046.34 34.744 1046.58 33.328 1046.58 31.6C1046.58 29.872 1046.34 28.456 1045.88 27.352C1045.42 26.264 1044.81 25.72 1044.06 25.72C1043.3 25.72 1042.7 26.264 1042.23 27.352ZM1053.31 37.864C1052.25 36.248 1051.73 34.16 1051.73 31.6C1051.73 29.024 1052.25 26.944 1053.31 25.36C1054.38 23.76 1055.77 22.96 1057.49 22.96C1059.2 22.96 1060.58 23.76 1061.64 25.36C1062.71 26.928 1063.25 29.008 1063.25 31.6C1063.25 34.176 1062.71 36.264 1061.64 37.864C1060.58 39.448 1059.2 40.24 1057.49 40.24C1055.79 40.24 1054.4 39.448 1053.31 37.864ZM1055.66 27.352C1055.2 28.456 1054.97 29.872 1054.97 31.6C1054.97 33.328 1055.2 34.744 1055.66 35.848C1056.13 36.936 1056.73 37.48 1057.49 37.48C1058.24 37.48 1058.85 36.936 1059.31 35.848C1059.77 34.744 1060.01 33.328 1060.01 31.6C1060.01 29.872 1059.77 28.456 1059.31 27.352C1058.85 26.264 1058.24 25.72 1057.49 25.72C1056.73 25.72 1056.13 26.264 1055.66 27.352ZM1071.4 34.72H1065.16V32.32H1071.4V34.72ZM1074.9 37.864C1073.84 36.248 1073.31 34.16 1073.31 31.6C1073.31 29.024 1073.84 26.944 1074.9 25.36C1075.97 23.76 1077.36 22.96 1079.07 22.96C1080.78 22.96 1082.17 23.76 1083.22 25.36C1084.3 26.928 1084.83 29.008 1084.83 31.6C1084.83 34.176 1084.3 36.264 1083.22 37.864C1082.17 39.448 1080.78 40.24 1079.07 40.24C1077.38 40.24 1075.98 39.448 1074.9 37.864ZM1077.25 27.352C1076.78 28.456 1076.55 29.872 1076.55 31.6C1076.55 33.328 1076.78 34.744 1077.25 35.848C1077.71 36.936 1078.32 37.48 1079.07 37.48C1079.82 37.48 1080.43 36.936 1080.9 35.848C1081.36 34.744 1081.59 33.328 1081.59 31.6C1081.59 29.872 1081.36 28.456 1080.9 27.352C1080.43 26.264 1079.82 25.72 1079.07 25.72C1078.32 25.72 1077.71 26.264 1077.25 27.352ZM1088.33 37.864C1087.27 36.248 1086.74 34.16 1086.74 31.6C1086.74 29.024 1087.27 26.944 1088.33 25.36C1089.4 23.76 1090.79 22.96 1092.5 22.96C1094.21 22.96 1095.6 23.76 1096.65 25.36C1097.73 26.928 1098.26 29.008 1098.26 31.6C1098.26 34.176 1097.73 36.264 1096.65 37.864C1095.6 39.448 1094.21 40.24 1092.5 40.24C1090.81 40.24 1089.41 39.448 1088.33 37.864ZM1090.68 27.352C1090.21 28.456 1089.98 29.872 1089.98 31.6C1089.98 33.328 1090.21 34.744 1090.68 35.848C1091.14 36.936 1091.75 37.48 1092.5 37.48C1093.25 37.48 1093.86 36.936 1094.33 35.848C1094.79 34.744 1095.02 33.328 1095.02 31.6C1095.02 29.872 1094.79 28.456 1094.33 27.352C1093.86 26.264 1093.25 25.72 1092.5 25.72C1091.75 25.72 1091.14 26.264 1090.68 27.352Z" fill="white"/>
<path d="M1116 41L1117.41 35.8642C1116.54 34.3608 1116.08 32.6567 1116.08 30.9092C1116.09 25.4458 1120.53 21 1125.99 21C1128.64 21.0008 1131.13 22.0333 1133 23.9067C1134.88 25.78 1135.91 28.27 1135.91 30.9183C1135.9 36.3825 1131.46 40.8283 1125.99 40.8283C1124.34 40.8275 1122.7 40.4117 1121.25 39.6217L1116 41ZM1121.5 37.8275C1122.89 38.6567 1124.23 39.1533 1125.99 39.1542C1130.53 39.1542 1134.23 35.4592 1134.23 30.9167C1134.23 26.365 1130.55 22.675 1126 22.6733C1121.45 22.6733 1117.76 26.3683 1117.76 30.91C1117.76 32.7642 1118.3 34.1525 1119.21 35.605L1118.38 38.645L1121.5 37.8275ZM1130.99 33.2742C1130.93 33.1708 1130.76 33.1092 1130.51 32.985C1130.26 32.8608 1129.05 32.2617 1128.82 32.1792C1128.59 32.0967 1128.43 32.055 1128.26 32.3033C1128.1 32.5508 1127.62 33.1092 1127.48 33.2742C1127.33 33.4392 1127.19 33.46 1126.94 33.3358C1126.69 33.2117 1125.89 32.9508 1124.95 32.1067C1124.21 31.45 1123.72 30.6392 1123.57 30.3908C1123.43 30.1433 1123.56 30.0092 1123.68 29.8858C1123.79 29.775 1123.93 29.5967 1124.05 29.4517C1124.18 29.3083 1124.22 29.205 1124.3 29.0392C1124.38 28.8742 1124.34 28.7292 1124.28 28.605C1124.22 28.4817 1123.72 27.2625 1123.52 26.7667C1123.32 26.2842 1123.11 26.3492 1122.96 26.3417L1122.49 26.3333C1122.32 26.3333 1122.05 26.395 1121.82 26.6433C1121.6 26.8917 1120.96 27.49 1120.96 28.7092C1120.96 29.9283 1121.85 31.1058 1121.97 31.2708C1122.09 31.4358 1123.71 33.9375 1126.2 35.01C1126.79 35.265 1127.25 35.4175 1127.61 35.5317C1128.2 35.72 1128.74 35.6933 1129.17 35.63C1129.65 35.5592 1130.64 35.0308 1130.84 34.4525C1131.05 33.8733 1131.05 33.3775 1130.99 33.2742Z" fill="white"/>
<path fill-rule="evenodd" clip-rule="evenodd" d="M1159 21C1153.48 21 1149 25.4773 1149 31C1149 36.5227 1153.48 41 1159 41C1164.52 41 1169 36.5227 1169 31C1169 25.4773 1164.52 21 1159 21ZM1163.64 27.8008C1163.48 29.382 1162.83 33.2191 1162.5 34.9902C1162.36 35.7398 1162.09 35.991 1161.82 36.0156C1161.24 36.0691 1160.8 35.6316 1160.23 35.2629C1159.35 34.6859 1158.86 34.327 1158 33.7641C1157.02 33.1133 1157.66 32.7559 1158.22 32.1715C1158.37 32.0184 1160.92 29.691 1160.97 29.4801C1160.98 29.4535 1160.99 29.3551 1160.93 29.3031C1160.87 29.2512 1160.78 29.2691 1160.72 29.2832C1160.63 29.3031 1159.23 30.2324 1156.5 32.0711C1156.1 32.3453 1155.74 32.4785 1155.42 32.4719C1155.06 32.4641 1154.37 32.2699 1153.86 32.1039C1153.24 31.9004 1152.74 31.7926 1152.78 31.4469C1152.81 31.2668 1153.05 31.0828 1153.53 30.8945C1156.44 29.6242 1158.39 28.7871 1159.36 28.3824C1162.14 27.2274 1162.71 27.0266 1163.09 27.0199C1163.56 27.0116 1163.67 27.4005 1163.64 27.8008Z" fill="white"/>
<rect x="1205.5" y="6.5" width="174" height="49" rx="4.5" stroke="white"/>
<path d="M1241.87 36V24.8H1250.51V36H1248.35V26.56H1244.03V36H1241.87ZM1258.26 26.56H1254.26V29.52H1257.78V31.28H1254.26V34.24H1258.34V36H1252.1V24.8H1258.26V26.56ZM1261.94 36H1259.7V24.8H1263.14C1264.24 24.8 1265.12 25.104 1265.79 25.712C1266.47 26.32 1266.8 27.136 1266.8 28.16C1266.8 29.184 1266.47 30 1265.79 30.608C1265.12 31.216 1264.24 31.52 1263.14 31.52H1261.94V36ZM1263.14 26.64H1261.94V29.68H1263.14C1263.57 29.68 1263.91 29.5413 1264.16 29.264C1264.43 28.9867 1264.56 28.6187 1264.56 28.16C1264.56 27.7013 1264.43 27.3333 1264.16 27.056C1263.91 26.7787 1263.57 26.64 1263.14 26.64ZM1274.41 26.56H1270.41V29.52H1273.93V31.28H1270.41V34.24H1274.49V36H1268.25V24.8H1274.41V26.56ZM1279.68 31.12H1278.08V29.28H1279.28C1279.7 29.28 1280.03 29.1627 1280.29 28.928C1280.54 28.6827 1280.67 28.352 1280.67 27.936C1280.67 27.4987 1280.53 27.152 1280.24 26.896C1279.96 26.64 1279.59 26.512 1279.14 26.512C1278.35 26.512 1277.63 26.8373 1276.98 27.488L1275.7 26.208C1276.74 25.1627 1277.95 24.64 1279.31 24.64C1280.41 24.64 1281.27 24.9333 1281.89 25.52C1282.52 26.096 1282.83 26.8373 1282.83 27.744C1282.83 28.7253 1282.44 29.488 1281.66 30.032C1282.73 30.5867 1283.26 31.5147 1283.26 32.816C1283.26 33.84 1282.91 34.656 1282.21 35.264C1281.51 35.8613 1280.59 36.16 1279.42 36.16C1277.86 36.16 1276.55 35.6267 1275.52 34.56L1276.86 33.216C1277.55 33.9307 1278.35 34.288 1279.26 34.288C1279.83 34.288 1280.28 34.1333 1280.61 33.824C1280.94 33.5147 1281.1 33.1147 1281.1 32.624C1281.1 32.176 1280.97 31.8133 1280.7 31.536C1280.45 31.2587 1280.11 31.12 1279.68 31.12ZM1288.71 36H1284.78V24.8H1288.38C1289.35 24.8 1290.13 25.072 1290.71 25.616C1291.31 26.16 1291.61 26.88 1291.61 27.776C1291.61 28.7573 1291.27 29.5093 1290.6 30.032C1291.67 30.576 1292.2 31.4987 1292.2 32.8C1292.2 33.76 1291.88 34.5387 1291.24 35.136C1290.6 35.712 1289.76 36 1288.71 36ZM1288.62 31.12H1287.02V34.16H1288.62C1289.04 34.16 1289.38 34.0213 1289.64 33.744C1289.91 33.4667 1290.04 33.0987 1290.04 32.64C1290.04 32.1813 1289.91 31.8133 1289.64 31.536C1289.38 31.2587 1289.04 31.12 1288.62 31.12ZM1288.22 26.64H1287.02V29.28H1288.22C1288.59 29.28 1288.89 29.1627 1289.11 28.928C1289.34 28.6827 1289.45 28.3627 1289.45 27.968C1289.45 27.5733 1289.34 27.2533 1289.11 27.008C1288.89 26.7627 1288.59 26.64 1288.22 26.64ZM1299.02 24.64C1300.73 24.64 1302.12 25.1733 1303.18 26.24C1304.24 27.296 1304.78 28.6827 1304.78 30.4C1304.78 32.1173 1304.24 33.5093 1303.18 34.576C1302.12 35.632 1300.73 36.16 1299.02 36.16C1297.31 36.16 1295.92 35.6267 1294.86 34.56C1293.79 33.4933 1293.26 32.1067 1293.26 30.4C1293.26 28.6933 1293.79 27.3067 1294.86 26.24C1295.92 25.1733 1297.31 24.64 1299.02 24.64ZM1299.02 26.56C1297.97 26.56 1297.12 26.9173 1296.47 27.632C1295.82 28.3467 1295.5 29.2693 1295.5 30.4C1295.5 31.5307 1295.82 32.4533 1296.47 33.168C1297.12 33.8827 1297.97 34.24 1299.02 34.24C1300.06 34.24 1300.91 33.8827 1301.56 33.168C1302.21 32.4533 1302.54 31.5307 1302.54 30.4C1302.54 29.2693 1302.21 28.3467 1301.56 27.632C1300.91 26.9173 1300.06 26.56 1299.02 26.56ZM1306.21 24.8H1308.37V29.52H1313.33V24.8H1315.49V36H1313.33V31.28H1308.37V36H1306.21V24.8ZM1319.25 31.84L1325.17 24.8H1326.53V36H1324.37V28.96L1318.45 36H1317.09V24.8H1319.25V31.84ZM1335.74 26.56H1332.86V36H1330.7V26.56H1327.82V24.8H1335.74V26.56ZM1340.63 36H1337.03V24.8H1339.27V29.28H1340.63C1341.73 29.28 1342.61 29.584 1343.28 30.192C1343.95 30.8 1344.29 31.616 1344.29 32.64C1344.29 33.664 1343.95 34.48 1343.28 35.088C1342.61 35.696 1341.73 36 1340.63 36ZM1340.63 31.12H1339.27V34.16H1340.63C1341.05 34.16 1341.39 34.0213 1341.65 33.744C1341.92 33.4667 1342.05 33.0987 1342.05 32.64C1342.05 32.1813 1341.92 31.8133 1341.65 31.536C1341.39 31.2587 1341.05 31.12 1340.63 31.12Z" fill="white"/>
<path d="M337.291 20.156C335.904 20.156 334.765 19.701 333.872 18.791C332.971 17.8723 332.52 16.7587 332.52 15.45C332.52 14.1413 332.971 13.0277 333.872 12.109C334.765 11.199 335.904 10.744 337.291 10.744C338.123 10.744 338.89 10.9477 339.592 11.355C340.294 11.7537 340.84 12.2953 341.23 12.98L340.424 13.448C340.138 12.8933 339.713 12.4513 339.15 12.122C338.587 11.7927 337.967 11.628 337.291 11.628C336.147 11.628 335.22 11.9963 334.509 12.733C333.79 13.4783 333.43 14.384 333.43 15.45C333.43 16.516 333.79 17.4217 334.509 18.167C335.22 18.9037 336.147 19.272 337.291 19.272C337.967 19.272 338.587 19.1073 339.15 18.778C339.713 18.4487 340.138 18.0067 340.424 17.452L341.23 17.907C340.857 18.5917 340.316 19.1377 339.605 19.545C338.894 19.9523 338.123 20.156 337.291 20.156ZM341.817 13.5H347.277V14.332H344.976V20H344.118V14.332H341.817V13.5ZM351.806 13.344C352.733 13.344 353.522 13.6733 354.172 14.332C354.831 14.9907 355.16 15.7967 355.16 16.75C355.16 17.7033 354.831 18.5093 354.172 19.168C353.522 19.8267 352.733 20.156 351.806 20.156C350.653 20.156 349.778 19.6793 349.18 18.726V22.6H348.322V13.5H349.18V14.774C349.778 13.8207 350.653 13.344 351.806 13.344ZM349.921 18.583C350.415 19.077 351.022 19.324 351.741 19.324C352.46 19.324 353.067 19.077 353.561 18.583C354.055 18.0717 354.302 17.4607 354.302 16.75C354.302 16.0307 354.055 15.424 353.561 14.93C353.067 14.4273 352.46 14.176 351.741 14.176C351.022 14.176 350.415 14.4273 349.921 14.93C349.427 15.424 349.18 16.0307 349.18 16.75C349.18 17.4607 349.427 18.0717 349.921 18.583ZM362.034 19.181C361.366 19.831 360.56 20.156 359.616 20.156C358.654 20.156 357.843 19.831 357.185 19.181C356.526 18.5223 356.197 17.712 356.197 16.75C356.197 15.788 356.526 14.982 357.185 14.332C357.843 13.6733 358.654 13.344 359.616 13.344C360.569 13.344 361.375 13.6733 362.034 14.332C362.701 14.982 363.035 15.788 363.035 16.75C363.035 17.7033 362.701 18.5137 362.034 19.181ZM357.796 18.583C358.29 19.077 358.896 19.324 359.616 19.324C360.335 19.324 360.942 19.077 361.436 18.583C361.93 18.0717 362.177 17.4607 362.177 16.75C362.177 16.0307 361.93 15.424 361.436 14.93C360.942 14.4273 360.335 14.176 359.616 14.176C358.896 14.176 358.29 14.4273 357.796 14.93C357.302 15.424 357.055 16.0307 357.055 16.75C357.055 17.4607 357.302 18.0717 357.796 18.583ZM365.329 18.505L369.203 13.5H369.931V20H369.073V14.995L365.199 20H364.471V13.5H365.329V18.505ZM370.965 13.5H376.425V14.332H374.124V20H373.266V14.332H370.965V13.5ZM380.22 13.344C381.19 13.344 381.966 13.6863 382.547 14.371C383.145 15.047 383.444 15.8487 383.444 16.776C383.444 16.8193 383.435 16.9537 383.418 17.179H377.711C377.797 17.829 378.075 18.349 378.543 18.739C379.011 19.129 379.596 19.324 380.298 19.324C381.286 19.324 381.983 18.9557 382.391 18.219L383.145 18.661C382.859 19.129 382.464 19.4973 381.962 19.766C381.468 20.026 380.909 20.156 380.285 20.156C379.262 20.156 378.43 19.8353 377.789 19.194C377.147 18.5527 376.827 17.738 376.827 16.75C376.827 15.7707 377.143 14.9603 377.776 14.319C378.408 13.669 379.223 13.344 380.22 13.344ZM380.22 14.176C379.544 14.176 378.976 14.3753 378.517 14.774C378.066 15.1727 377.797 15.697 377.711 16.347H382.56C382.464 15.6537 382.2 15.1207 381.767 14.748C381.316 14.3667 380.8 14.176 380.22 14.176ZM385.231 13.5H389.885V20H389.027V14.332H386.089V17.231C386.089 18.3143 385.881 19.0597 385.465 19.467C385.057 19.8743 384.494 20.052 383.775 20V19.194C384.277 19.246 384.646 19.1247 384.88 18.83C385.114 18.5353 385.231 18.0023 385.231 17.231V13.5ZM392.56 15.97H394.341C394.939 15.97 395.45 16.1607 395.875 16.542C396.3 16.9147 396.512 17.3957 396.512 17.985C396.512 18.583 396.3 19.0683 395.875 19.441C395.468 19.8137 394.956 20 394.341 20H391.702V13.5H392.56V15.97ZM392.56 19.168H394.341C394.714 19.168 395.026 19.0597 395.277 18.843C395.528 18.6177 395.654 18.3317 395.654 17.985C395.654 17.6383 395.528 17.3567 395.277 17.14C395.026 16.9147 394.714 16.802 394.341 16.802H392.56V19.168ZM402.41 16.334V13.5H403.268V20H402.41V17.166H398.666V20H397.808V13.5H398.666V16.334H402.41ZM410.673 14.774V13.5H411.531V20H410.673V18.726C410.075 19.6793 409.2 20.156 408.047 20.156C407.12 20.156 406.327 19.8267 405.668 19.168C405.018 18.5093 404.693 17.7033 404.693 16.75C404.693 15.7967 405.018 14.9907 405.668 14.332C406.327 13.6733 407.12 13.344 408.047 13.344C409.2 13.344 410.075 13.8207 410.673 14.774ZM406.292 18.583C406.786 19.077 407.393 19.324 408.112 19.324C408.831 19.324 409.438 19.077 409.932 18.583C410.426 18.0717 410.673 17.4607 410.673 16.75C410.673 16.0307 410.426 15.424 409.932 14.93C409.438 14.4273 408.831 14.176 408.112 14.176C407.393 14.176 406.786 14.4273 406.292 14.93C405.798 15.424 405.551 16.0307 405.551 16.75C405.551 17.4607 405.798 18.0717 406.292 18.583ZM415.389 13.5H418.028V20H417.17V17.504H416.052L414.05 20H412.958L415.012 17.478C414.483 17.4 414.05 17.1833 413.712 16.828C413.382 16.464 413.218 16.0263 413.218 15.515C413.218 14.9343 413.426 14.4533 413.842 14.072C414.275 13.6907 414.791 13.5 415.389 13.5ZM415.389 16.698H417.17V14.332H415.389C415.016 14.332 414.704 14.4447 414.453 14.67C414.201 14.8867 414.076 15.1683 414.076 15.515C414.076 15.8617 414.201 16.1477 414.453 16.373C414.704 16.5897 415.016 16.698 415.389 16.698ZM424.866 16.62L428.35 20H427.206L423.956 16.867V20H423.098V13.5H423.956V16.373L427.05 13.5H428.22L424.866 16.62ZM434.321 19.181C433.654 19.831 432.848 20.156 431.903 20.156C430.941 20.156 430.131 19.831 429.472 19.181C428.813 18.5223 428.484 17.712 428.484 16.75C428.484 15.788 428.813 14.982 429.472 14.332C430.131 13.6733 430.941 13.344 431.903 13.344C432.856 13.344 433.662 13.6733 434.321 14.332C434.988 14.982 435.322 15.788 435.322 16.75C435.322 17.7033 434.988 18.5137 434.321 19.181ZM430.083 18.583C430.577 19.077 431.184 19.324 431.903 19.324C432.622 19.324 433.229 19.077 433.723 18.583C434.217 18.0717 434.464 17.4607 434.464 16.75C434.464 16.0307 434.217 15.424 433.723 14.93C433.229 14.4273 432.622 14.176 431.903 14.176C431.184 14.176 430.577 14.4273 430.083 14.93C429.589 15.424 429.342 16.0307 429.342 16.75C429.342 17.4607 429.589 18.0717 430.083 18.583ZM442.14 13.5H443.128V20H442.27V14.813L439.995 18.505H439.891L437.616 14.813V20H436.758V13.5H437.746L439.943 17.062L442.14 13.5ZM444.946 13.5H450.406V20H449.548V14.332H445.804V20H444.946V13.5ZM457.811 14.774V13.5H458.669V20H457.811V18.726C457.213 19.6793 456.337 20.156 455.185 20.156C454.257 20.156 453.464 19.8267 452.806 19.168C452.156 18.5093 451.831 17.7033 451.831 16.75C451.831 15.7967 452.156 14.9907 452.806 14.332C453.464 13.6733 454.257 13.344 455.185 13.344C456.337 13.344 457.213 13.8207 457.811 14.774ZM453.43 18.583C453.924 19.077 454.53 19.324 455.25 19.324C455.969 19.324 456.576 19.077 457.07 18.583C457.564 18.0717 457.811 17.4607 457.811 16.75C457.811 16.0307 457.564 15.424 457.07 14.93C456.576 14.4273 455.969 14.176 455.25 14.176C454.53 14.176 453.924 14.4273 453.43 14.93C452.936 15.424 452.689 16.0307 452.689 16.75C452.689 17.4607 452.936 18.0717 453.43 18.583ZM465.087 16.334V13.5H465.945V20H465.087V17.166H461.343V20H460.485V13.5H461.343V16.334H465.087ZM468.618 18.505L472.492 13.5H473.22V20H472.362V14.995L468.488 20H467.76V13.5H468.618V18.505ZM477.075 13.5H479.714V20H478.856V17.504H477.738L475.736 20H474.644L476.698 17.478C476.169 17.4 475.736 17.1833 475.398 16.828C475.069 16.464 474.904 16.0263 474.904 15.515C474.904 14.9343 475.112 14.4533 475.528 14.072C475.961 13.6907 476.477 13.5 477.075 13.5ZM477.075 16.698H478.856V14.332H477.075C476.702 14.332 476.39 14.4447 476.139 14.67C475.888 14.8867 475.762 15.1683 475.762 15.515C475.762 15.8617 475.888 16.1477 476.139 16.373C476.39 16.5897 476.702 16.698 477.075 16.698ZM486.214 13.643H487.28L485.85 15.983L487.28 18.323H486.214L484.784 15.983L486.214 13.643ZM488.294 13.643H489.36L487.93 15.983L489.36 18.323H488.294L486.864 15.983L488.294 13.643ZM495.563 20.156C494.177 20.156 493.037 19.701 492.144 18.791C491.243 17.8723 490.792 16.7587 490.792 15.45C490.792 14.1413 491.243 13.0277 492.144 12.109C493.037 11.199 494.177 10.744 495.563 10.744C496.395 10.744 497.162 10.9477 497.864 11.355C498.566 11.7537 499.112 12.2953 499.502 12.98L498.696 13.448C498.41 12.8933 497.986 12.4513 497.422 12.122C496.859 11.7927 496.239 11.628 495.563 11.628C494.419 11.628 493.492 11.9963 492.781 12.733C492.062 13.4783 491.702 14.384 491.702 15.45C491.702 16.516 492.062 17.4217 492.781 18.167C493.492 18.9037 494.419 19.272 495.563 19.272C496.239 19.272 496.859 19.1073 497.422 18.778C497.986 18.4487 498.41 18.0067 498.696 17.452L499.502 17.907C499.13 18.5917 498.588 19.1377 497.877 19.545C497.167 19.9523 496.395 20.156 495.563 20.156ZM501.727 18.505L505.601 13.5H506.329V20H505.471V14.995L501.597 20H500.869V13.5H501.727V18.505ZM511.627 13.344C512.555 13.344 513.343 13.6733 513.993 14.332C514.652 14.9907 514.981 15.7967 514.981 16.75C514.981 17.7033 514.652 18.5093 513.993 19.168C513.343 19.8267 512.555 20.156 511.627 20.156C510.475 20.156 509.599 19.6793 509.001 18.726V22.6H508.143V13.5H509.001V14.774C509.599 13.8207 510.475 13.344 511.627 13.344ZM509.742 18.583C510.236 19.077 510.843 19.324 511.562 19.324C512.282 19.324 512.888 19.077 513.382 18.583C513.876 18.0717 514.123 17.4607 514.123 16.75C514.123 16.0307 513.876 15.424 513.382 14.93C512.888 14.4273 512.282 14.176 511.562 14.176C510.843 14.176 510.236 14.4273 509.742 14.93C509.248 15.424 509.001 16.0307 509.001 16.75C509.001 17.4607 509.248 18.0717 509.742 18.583ZM517.266 18.505L521.14 13.5H521.868V20H521.01V14.995L517.136 20H516.408V13.5H517.266V18.505ZM526.256 18.947L528.362 13.5H529.272L526.49 20.598C526.23 21.2567 525.866 21.7637 525.398 22.119C524.939 22.483 524.428 22.6433 523.864 22.6V21.794C524.644 21.8893 525.238 21.4387 525.645 20.442L525.814 20.039L522.902 13.5H523.812L526.256 18.947ZM533.085 20.156C532.105 20.156 531.291 19.831 530.641 19.181C529.991 18.5137 529.666 17.7033 529.666 16.75C529.666 15.788 529.991 14.982 530.641 14.332C531.291 13.6733 532.105 13.344 533.085 13.344C533.726 13.344 534.302 13.5 534.814 13.812C535.325 14.1153 535.698 14.527 535.932 15.047L535.23 15.45C535.056 15.06 534.775 14.7523 534.385 14.527C534.003 14.293 533.57 14.176 533.085 14.176C532.365 14.176 531.759 14.4273 531.265 14.93C530.771 15.424 530.524 16.0307 530.524 16.75C530.524 17.4607 530.771 18.0717 531.265 18.583C531.759 19.077 532.365 19.324 533.085 19.324C533.561 19.324 533.99 19.2113 534.372 18.986C534.762 18.7607 535.065 18.4487 535.282 18.05L535.997 18.466C535.728 18.986 535.334 19.3977 534.814 19.701C534.294 20.0043 533.717 20.156 533.085 20.156ZM537.228 13.643H538.294L539.724 15.983L538.294 18.323H537.228L538.658 15.983L537.228 13.643ZM539.308 13.643H540.374L541.804 15.983L540.374 18.323H539.308L540.738 15.983L539.308 13.643ZM544.017 18.895H545.057L544.277 21.82H543.497L544.017 18.895ZM550 13.5H555.46V20H554.602V14.332H550.858V20H550V13.5ZM560.758 13.344C561.686 13.344 562.474 13.6733 563.124 14.332C563.783 14.9907 564.112 15.7967 564.112 16.75C564.112 17.7033 563.783 18.5093 563.124 19.168C562.474 19.8267 561.686 20.156 560.758 20.156C559.606 20.156 558.73 19.6793 558.132 18.726V22.6H557.274V13.5H558.132V14.774C558.73 13.8207 559.606 13.344 560.758 13.344ZM558.873 18.583C559.367 19.077 559.974 19.324 560.693 19.324C561.413 19.324 562.019 19.077 562.513 18.583C563.007 18.0717 563.254 17.4607 563.254 16.75C563.254 16.0307 563.007 15.424 562.513 14.93C562.019 14.4273 561.413 14.176 560.693 14.176C559.974 14.176 559.367 14.4273 558.873 14.93C558.379 15.424 558.132 16.0307 558.132 16.75C558.132 17.4607 558.379 18.0717 558.873 18.583ZM568.542 13.344C569.513 13.344 570.288 13.6863 570.869 14.371C571.467 15.047 571.766 15.8487 571.766 16.776C571.766 16.8193 571.757 16.9537 571.74 17.179H566.033C566.12 17.829 566.397 18.349 566.865 18.739C567.333 19.129 567.918 19.324 568.62 19.324C569.608 19.324 570.306 18.9557 570.713 18.219L571.467 18.661C571.181 19.129 570.787 19.4973 570.284 19.766C569.79 20.026 569.231 20.156 568.607 20.156C567.584 20.156 566.752 19.8353 566.111 19.194C565.47 18.5527 565.149 17.738 565.149 16.75C565.149 15.7707 565.465 14.9603 566.098 14.319C566.731 13.669 567.545 13.344 568.542 13.344ZM568.542 14.176C567.866 14.176 567.298 14.3753 566.839 14.774C566.388 15.1727 566.12 15.697 566.033 16.347H570.882C570.787 15.6537 570.522 15.1207 570.089 14.748C569.638 14.3667 569.123 14.176 568.542 14.176ZM578.337 13.5V19.168H579.247V21.742H578.389V20H573.085V21.742H572.227V19.168H573.02C573.462 18.5787 573.683 17.7597 573.683 16.711V13.5H578.337ZM574.06 19.168H577.479V14.332H574.541V16.711C574.541 17.7163 574.38 18.5353 574.06 19.168ZM581.221 13.5H585.875V20H585.017V14.332H582.079V17.231C582.079 18.3143 581.871 19.0597 581.455 19.467C581.047 19.8743 580.484 20.052 579.765 20V19.194C580.267 19.246 580.636 19.1247 580.87 18.83C581.104 18.5353 581.221 18.0023 581.221 17.231V13.5ZM593.282 14.774V13.5H594.14V20H593.282V18.726C592.684 19.6793 591.809 20.156 590.656 20.156C589.729 20.156 588.936 19.8267 588.277 19.168C587.627 18.5093 587.302 17.7033 587.302 16.75C587.302 15.7967 587.627 14.9907 588.277 14.332C588.936 13.6733 589.729 13.344 590.656 13.344C591.809 13.344 592.684 13.8207 593.282 14.774ZM588.901 18.583C589.395 19.077 590.002 19.324 590.721 19.324C591.441 19.324 592.047 19.077 592.541 18.583C593.035 18.0717 593.282 17.4607 593.282 16.75C593.282 16.0307 593.035 15.424 592.541 14.93C592.047 14.4273 591.441 14.176 590.721 14.176C590.002 14.176 589.395 14.4273 588.901 14.93C588.407 15.424 588.16 16.0307 588.16 16.75C588.16 17.4607 588.407 18.0717 588.901 18.583ZM595.957 13.5H600.117V14.332H596.815V20H595.957V13.5ZM606.498 14.774V13.5H607.356V20H606.498V18.726C605.9 19.6793 605.025 20.156 603.872 20.156C602.945 20.156 602.152 19.8267 601.493 19.168C600.843 18.5093 600.518 17.7033 600.518 16.75C600.518 15.7967 600.843 14.9907 601.493 14.332C602.152 13.6733 602.945 13.344 603.872 13.344C605.025 13.344 605.9 13.8207 606.498 14.774ZM602.117 18.583C602.611 19.077 603.218 19.324 603.937 19.324C604.656 19.324 605.263 19.077 605.757 18.583C606.251 18.0717 606.498 17.4607 606.498 16.75C606.498 16.0307 606.251 15.424 605.757 14.93C605.263 14.4273 604.656 14.176 603.937 14.176C603.218 14.176 602.611 14.4273 602.117 14.93C601.623 15.424 601.376 16.0307 601.376 16.75C601.376 17.4607 601.623 18.0717 602.117 18.583ZM612.176 13.344C613.146 13.344 613.922 13.6863 614.503 14.371C615.101 15.047 615.4 15.8487 615.4 16.776C615.4 16.8193 615.391 16.9537 615.374 17.179H609.667C609.753 17.829 610.031 18.349 610.499 18.739C610.967 19.129 611.552 19.324 612.254 19.324C613.242 19.324 613.939 18.9557 614.347 18.219L615.101 18.661C614.815 19.129 614.42 19.4973 613.918 19.766C613.424 20.026 612.865 20.156 612.241 20.156C611.218 20.156 610.386 19.8353 609.745 19.194C609.103 18.5527 608.783 17.738 608.783 16.75C608.783 15.7707 609.099 14.9603 609.732 14.319C610.364 13.669 611.179 13.344 612.176 13.344ZM612.176 14.176C611.5 14.176 610.932 14.3753 610.473 14.774C610.022 15.1727 609.753 15.697 609.667 16.347H614.516C614.42 15.6537 614.156 15.1207 613.723 14.748C613.272 14.3667 612.756 14.176 612.176 14.176ZM615.731 13.5H621.191V14.332H618.89V20H618.032V14.332H615.731V13.5ZM338.084 31.281C338.535 31.4717 338.89 31.762 339.15 32.152C339.41 32.542 339.54 32.9797 339.54 33.465C339.54 34.167 339.293 34.765 338.799 35.259C338.305 35.753 337.707 36 337.005 36H333.04V26.9H336.706C337.373 26.9 337.95 27.1427 338.435 27.628C338.912 28.1047 339.15 28.6767 339.15 29.344C339.15 30.1933 338.795 30.839 338.084 31.281ZM336.706 27.758H333.95V30.93H336.706C337.122 30.93 337.482 30.7783 337.785 30.475C338.088 30.1543 338.24 29.7773 338.24 29.344C338.24 28.9193 338.088 28.5467 337.785 28.226C337.482 27.914 337.122 27.758 336.706 27.758ZM333.95 35.142H337.005C337.456 35.142 337.837 34.9817 338.149 34.661C338.47 34.3403 338.63 33.9417 338.63 33.465C338.63 32.997 338.47 32.6027 338.149 32.282C337.837 31.9527 337.456 31.788 337.005 31.788H333.95V35.142ZM346.562 30.774V29.5H347.42V36H346.562V34.726C345.964 35.6793 345.088 36.156 343.936 36.156C343.008 36.156 342.215 35.8267 341.557 35.168C340.907 34.5093 340.582 33.7033 340.582 32.75C340.582 31.7967 340.907 30.9907 341.557 30.332C342.215 29.6733 343.008 29.344 343.936 29.344C345.088 29.344 345.964 29.8207 346.562 30.774ZM342.181 34.583C342.675 35.077 343.281 35.324 344.001 35.324C344.72 35.324 345.327 35.077 345.821 34.583C346.315 34.0717 346.562 33.4607 346.562 32.75C346.562 32.0307 346.315 31.424 345.821 30.93C345.327 30.4273 344.72 30.176 344.001 30.176C343.281 30.176 342.675 30.4273 342.181 30.93C341.687 31.424 341.44 32.0307 341.44 32.75C341.44 33.4607 341.687 34.0717 342.181 34.583ZM354.618 29.5H355.606V36H354.748V30.813L352.473 34.505H352.369L350.094 30.813V36H349.236V29.5H350.224L352.421 33.062L354.618 29.5ZM360.675 29.5H366.135V36H365.277V30.332H361.533V36H360.675V29.5ZM371.433 29.344C372.36 29.344 373.149 29.6733 373.799 30.332C374.458 30.9907 374.787 31.7967 374.787 32.75C374.787 33.7033 374.458 34.5093 373.799 35.168C373.149 35.8267 372.36 36.156 371.433 36.156C370.28 36.156 369.405 35.6793 368.807 34.726V38.6H367.949V29.5H368.807V30.774C369.405 29.8207 370.28 29.344 371.433 29.344ZM369.548 34.583C370.042 35.077 370.649 35.324 371.368 35.324C372.087 35.324 372.694 35.077 373.188 34.583C373.682 34.0717 373.929 33.4607 373.929 32.75C373.929 32.0307 373.682 31.424 373.188 30.93C372.694 30.4273 372.087 30.176 371.368 30.176C370.649 30.176 370.042 30.4273 369.548 30.93C369.054 31.424 368.807 32.0307 368.807 32.75C368.807 33.4607 369.054 34.0717 369.548 34.583ZM377.072 34.505L380.946 29.5H381.674V36H380.816V30.995L376.942 36H376.214V29.5H377.072V34.505ZM385.529 29.5H388.168V36H387.31V33.504H386.192L384.19 36H383.098L385.152 33.478C384.623 33.4 384.19 33.1833 383.852 32.828C383.523 32.464 383.358 32.0263 383.358 31.515C383.358 30.9343 383.566 30.4533 383.982 30.072C384.415 29.6907 384.931 29.5 385.529 29.5ZM385.529 32.698H387.31V30.332H385.529C385.156 30.332 384.844 30.4447 384.593 30.67C384.342 30.8867 384.216 31.1683 384.216 31.515C384.216 31.8617 384.342 32.1477 384.593 32.373C384.844 32.5897 385.156 32.698 385.529 32.698ZM389.208 29.5H394.668V30.332H392.367V36H391.509V30.332H389.208V29.5ZM400.316 32.334V29.5H401.174V36H400.316V33.166H396.572V36H395.714V29.5H396.572V32.334H400.316ZM408.435 35.181C407.768 35.831 406.962 36.156 406.017 36.156C405.055 36.156 404.245 35.831 403.586 35.181C402.927 34.5223 402.598 33.712 402.598 32.75C402.598 31.788 402.927 30.982 403.586 30.332C404.245 29.6733 405.055 29.344 406.017 29.344C406.97 29.344 407.776 29.6733 408.435 30.332C409.102 30.982 409.436 31.788 409.436 32.75C409.436 33.7033 409.102 34.5137 408.435 35.181ZM404.197 34.583C404.691 35.077 405.298 35.324 406.017 35.324C406.736 35.324 407.343 35.077 407.837 34.583C408.331 34.0717 408.578 33.4607 408.578 32.75C408.578 32.0307 408.331 31.424 407.837 30.93C407.343 30.4273 406.736 30.176 406.017 30.176C405.298 30.176 404.691 30.4273 404.197 30.93C403.703 31.424 403.456 32.0307 403.456 32.75C403.456 33.4607 403.703 34.0717 404.197 34.583ZM413.875 29.344C414.846 29.344 415.621 29.6863 416.202 30.371C416.8 31.047 417.099 31.8487 417.099 32.776C417.099 32.8193 417.09 32.9537 417.073 33.179H411.366C411.453 33.829 411.73 34.349 412.198 34.739C412.666 35.129 413.251 35.324 413.953 35.324C414.941 35.324 415.639 34.9557 416.046 34.219L416.8 34.661C416.514 35.129 416.12 35.4973 415.617 35.766C415.123 36.026 414.564 36.156 413.94 36.156C412.917 36.156 412.085 35.8353 411.444 35.194C410.803 34.5527 410.482 33.738 410.482 32.75C410.482 31.7707 410.798 30.9603 411.431 30.319C412.064 29.669 412.878 29.344 413.875 29.344ZM413.875 30.176C413.199 30.176 412.631 30.3753 412.172 30.774C411.721 31.1727 411.453 31.697 411.366 32.347H416.215C416.12 31.6537 415.855 31.1207 415.422 30.748C414.971 30.3667 414.456 30.176 413.875 30.176ZM424.743 36.156C423.763 36.156 422.949 35.831 422.299 35.181C421.649 34.5137 421.324 33.7033 421.324 32.75C421.324 31.788 421.649 30.982 422.299 30.332C422.949 29.6733 423.763 29.344 424.743 29.344C425.384 29.344 425.96 29.5 426.472 29.812C426.983 30.1153 427.356 30.527 427.59 31.047L426.888 31.45C426.714 31.06 426.433 30.7523 426.043 30.527C425.661 30.293 425.228 30.176 424.743 30.176C424.023 30.176 423.417 30.4273 422.923 30.93C422.429 31.424 422.182 32.0307 422.182 32.75C422.182 33.4607 422.429 34.0717 422.923 34.583C423.417 35.077 424.023 35.324 424.743 35.324C425.219 35.324 425.648 35.2113 426.03 34.986C426.42 34.7607 426.723 34.4487 426.94 34.05L427.655 34.466C427.386 34.986 426.992 35.3977 426.472 35.701C425.952 36.0043 425.375 36.156 424.743 36.156ZM434.27 35.181C433.603 35.831 432.797 36.156 431.852 36.156C430.89 36.156 430.08 35.831 429.421 35.181C428.762 34.5223 428.433 33.712 428.433 32.75C428.433 31.788 428.762 30.982 429.421 30.332C430.08 29.6733 430.89 29.344 431.852 29.344C432.805 29.344 433.611 29.6733 434.27 30.332C434.937 30.982 435.271 31.788 435.271 32.75C435.271 33.7033 434.937 34.5137 434.27 35.181ZM430.032 34.583C430.526 35.077 431.133 35.324 431.852 35.324C432.571 35.324 433.178 35.077 433.672 34.583C434.166 34.0717 434.413 33.4607 434.413 32.75C434.413 32.0307 434.166 31.424 433.672 30.93C433.178 30.4273 432.571 30.176 431.852 30.176C431.133 30.176 430.526 30.4273 430.032 30.93C429.538 31.424 429.291 32.0307 429.291 32.75C429.291 33.4607 429.538 34.0717 430.032 34.583ZM435.673 29.5H441.133V30.332H438.832V36H437.974V30.332H435.673V29.5ZM445.663 29.344C446.59 29.344 447.379 29.6733 448.029 30.332C448.687 30.9907 449.017 31.7967 449.017 32.75C449.017 33.7033 448.687 34.5093 448.029 35.168C447.379 35.8267 446.59 36.156 445.663 36.156C444.51 36.156 443.635 35.6793 443.037 34.726V38.6H442.179V29.5H443.037V30.774C443.635 29.8207 444.51 29.344 445.663 29.344ZM443.778 34.583C444.272 35.077 444.878 35.324 445.598 35.324C446.317 35.324 446.924 35.077 447.418 34.583C447.912 34.0717 448.159 33.4607 448.159 32.75C448.159 32.0307 447.912 31.424 447.418 30.93C446.924 30.4273 446.317 30.176 445.598 30.176C444.878 30.176 444.272 30.4273 443.778 30.93C443.284 31.424 443.037 32.0307 443.037 32.75C443.037 33.4607 443.284 34.0717 443.778 34.583ZM452.763 34.947L454.869 29.5H455.779L452.997 36.598C452.737 37.2567 452.373 37.7637 451.905 38.119C451.446 38.483 450.935 38.6433 450.371 38.6V37.794C451.151 37.8893 451.745 37.4387 452.152 36.442L452.321 36.039L449.409 29.5H450.319L452.763 34.947ZM461.883 29.5V35.168H462.793V37.742H461.935V36H456.631V37.742H455.773V35.168H456.566C457.008 34.5787 457.229 33.7597 457.229 32.711V29.5H461.883ZM457.606 35.168H461.025V30.332H458.087V32.711C458.087 33.7163 457.926 34.5353 457.606 35.168ZM468.693 32.334V29.5H469.551V36H468.693V33.166H464.949V36H464.091V29.5H464.949V32.334H468.693ZM472.223 34.505L476.097 29.5H476.825V36H475.967V30.995L472.093 36H471.365V29.5H472.223V34.505ZM482.851 32.737V29.5H483.709V36H482.851V33.53C482.349 33.79 481.729 33.92 480.992 33.92C480.134 33.92 479.484 33.725 479.042 33.335C478.6 32.9363 478.379 32.3513 478.379 31.58V29.5H479.237V31.58C479.237 32.1173 479.376 32.5073 479.653 32.75C479.939 32.9927 480.377 33.114 480.966 33.114C481.625 33.114 482.253 32.9883 482.851 32.737ZM488.536 29.344C489.507 29.344 490.282 29.6863 490.863 30.371C491.461 31.047 491.76 31.8487 491.76 32.776C491.76 32.8193 491.751 32.9537 491.734 33.179H486.027C486.114 33.829 486.391 34.349 486.859 34.739C487.327 35.129 487.912 35.324 488.614 35.324C489.602 35.324 490.3 34.9557 490.707 34.219L491.461 34.661C491.175 35.129 490.781 35.4973 490.278 35.766C489.784 36.026 489.225 36.156 488.601 36.156C487.578 36.156 486.746 35.8353 486.105 35.194C485.464 34.5527 485.143 33.738 485.143 32.75C485.143 31.7707 485.459 30.9603 486.092 30.319C486.725 29.669 487.539 29.344 488.536 29.344ZM488.536 30.176C487.86 30.176 487.292 30.3753 486.833 30.774C486.382 31.1727 486.114 31.697 486.027 32.347H490.876C490.781 31.6537 490.516 31.1207 490.083 30.748C489.632 30.3667 489.117 30.176 488.536 30.176ZM496.154 36.156C495.175 36.156 494.36 35.831 493.71 35.181C493.06 34.5137 492.735 33.7033 492.735 32.75C492.735 31.788 493.06 30.982 493.71 30.332C494.36 29.6733 495.175 29.344 496.154 29.344C496.795 29.344 497.372 29.5 497.883 29.812C498.394 30.1153 498.767 30.527 499.001 31.047L498.299 31.45C498.126 31.06 497.844 30.7523 497.454 30.527C497.073 30.293 496.639 30.176 496.154 30.176C495.435 30.176 494.828 30.4273 494.334 30.93C493.84 31.424 493.593 32.0307 493.593 32.75C493.593 33.4607 493.84 34.0717 494.334 34.583C494.828 35.077 495.435 35.324 496.154 35.324C496.631 35.324 497.06 35.2113 497.441 34.986C497.831 34.7607 498.134 34.4487 498.351 34.05L499.066 34.466C498.797 34.986 498.403 35.3977 497.883 35.701C497.363 36.0043 496.787 36.156 496.154 36.156ZM499.391 29.5H504.851V30.332H502.55V36H501.692V30.332H499.391V29.5ZM510.03 32.659C510.741 32.919 511.096 33.426 511.096 34.18C511.096 34.7173 510.914 35.155 510.55 35.493C510.195 35.831 509.697 36 509.055 36H505.896V29.5H508.795C509.419 29.5 509.905 29.6603 510.251 29.981C510.607 30.3017 510.784 30.722 510.784 31.242C510.784 31.892 510.533 32.3643 510.03 32.659ZM508.795 30.332H506.754V32.308H508.795C509.549 32.308 509.926 31.97 509.926 31.294C509.926 30.9907 509.827 30.7567 509.627 30.592C509.437 30.4187 509.159 30.332 508.795 30.332ZM506.754 35.168H509.055C509.437 35.168 509.727 35.077 509.926 34.895C510.134 34.713 510.238 34.4573 510.238 34.128C510.238 33.816 510.134 33.5733 509.926 33.4C509.727 33.2267 509.437 33.14 509.055 33.14H506.754V35.168ZM517.843 35.181C517.176 35.831 516.37 36.156 515.425 36.156C514.463 36.156 513.653 35.831 512.994 35.181C512.336 34.5223 512.006 33.712 512.006 32.75C512.006 31.788 512.336 30.982 512.994 30.332C513.653 29.6733 514.463 29.344 515.425 29.344C516.379 29.344 517.185 29.6733 517.843 30.332C518.511 30.982 518.844 31.788 518.844 32.75C518.844 33.7033 518.511 34.5137 517.843 35.181ZM513.605 34.583C514.099 35.077 514.706 35.324 515.425 35.324C516.145 35.324 516.751 35.077 517.245 34.583C517.739 34.0717 517.986 33.4607 517.986 32.75C517.986 32.0307 517.739 31.424 517.245 30.93C516.751 30.4273 516.145 30.176 515.425 30.176C514.706 30.176 514.099 30.4273 513.605 30.93C513.111 31.424 512.864 32.0307 512.864 32.75C512.864 33.4607 513.111 34.0717 513.605 34.583ZM521.06 35.415C521.06 35.6143 520.99 35.7833 520.852 35.922C520.713 36.0607 520.544 36.13 520.345 36.13C520.145 36.13 519.976 36.0607 519.838 35.922C519.699 35.7833 519.63 35.6143 519.63 35.415C519.63 35.2157 519.699 35.0467 519.838 34.908C519.976 34.7693 520.145 34.7 520.345 34.7C520.544 34.7 520.713 34.7693 520.852 34.908C520.99 35.0467 521.06 35.2157 521.06 35.415ZM526.136 26.9H532.636V36H531.726V27.758H527.046V36H526.136V26.9ZM538.072 29.344C538.999 29.344 539.788 29.6733 540.438 30.332C541.096 30.9907 541.426 31.7967 541.426 32.75C541.426 33.7033 541.096 34.5093 540.438 35.168C539.788 35.8267 538.999 36.156 538.072 36.156C536.919 36.156 536.044 35.6793 535.446 34.726V38.6H534.588V29.5H535.446V30.774C536.044 29.8207 536.919 29.344 538.072 29.344ZM536.187 34.583C536.681 35.077 537.287 35.324 538.007 35.324C538.726 35.324 539.333 35.077 539.827 34.583C540.321 34.0717 540.568 33.4607 540.568 32.75C540.568 32.0307 540.321 31.424 539.827 30.93C539.333 30.4273 538.726 30.176 538.007 30.176C537.287 30.176 536.681 30.4273 536.187 30.93C535.693 31.424 535.446 32.0307 535.446 32.75C535.446 33.4607 535.693 34.0717 536.187 34.583ZM545.855 29.344C546.826 29.344 547.602 29.6863 548.182 30.371C548.78 31.047 549.079 31.8487 549.079 32.776C549.079 32.8193 549.071 32.9537 549.053 33.179H543.346C543.433 33.829 543.71 34.349 544.178 34.739C544.646 35.129 545.231 35.324 545.933 35.324C546.921 35.324 547.619 34.9557 548.026 34.219L548.78 34.661C548.494 35.129 548.1 35.4973 547.597 35.766C547.103 36.026 546.544 36.156 545.92 36.156C544.898 36.156 544.066 35.8353 543.424 35.194C542.783 34.5527 542.462 33.738 542.462 32.75C542.462 31.7707 542.779 30.9603 543.411 30.319C544.044 29.669 544.859 29.344 545.855 29.344ZM545.855 30.176C545.179 30.176 544.612 30.3753 544.152 30.774C543.702 31.1727 543.433 31.697 543.346 32.347H548.195C548.1 31.6537 547.836 31.1207 547.402 30.748C546.952 30.3667 546.436 30.176 545.855 30.176ZM554.578 32.659C555.289 32.919 555.644 33.426 555.644 34.18C555.644 34.7173 555.462 35.155 555.098 35.493C554.743 35.831 554.245 36 553.603 36H550.444V29.5H553.343C553.967 29.5 554.453 29.6603 554.799 29.981C555.155 30.3017 555.332 30.722 555.332 31.242C555.332 31.892 555.081 32.3643 554.578 32.659ZM553.343 30.332H551.302V32.308H553.343C554.097 32.308 554.474 31.97 554.474 31.294C554.474 30.9907 554.375 30.7567 554.175 30.592C553.985 30.4187 553.707 30.332 553.343 30.332ZM551.302 35.168H553.603C553.985 35.168 554.275 35.077 554.474 34.895C554.682 34.713 554.786 34.4573 554.786 34.128C554.786 33.816 554.682 33.5733 554.474 33.4C554.275 33.2267 553.985 33.14 553.603 33.14H551.302V35.168ZM560.428 29.344C561.356 29.344 562.144 29.6733 562.794 30.332C563.453 30.9907 563.782 31.7967 563.782 32.75C563.782 33.7033 563.453 34.5093 562.794 35.168C562.144 35.8267 561.356 36.156 560.428 36.156C559.276 36.156 558.4 35.6793 557.802 34.726V38.6H556.944V29.5H557.802V30.774C558.4 29.8207 559.276 29.344 560.428 29.344ZM558.543 34.583C559.037 35.077 559.644 35.324 560.363 35.324C561.083 35.324 561.689 35.077 562.183 34.583C562.677 34.0717 562.924 33.4607 562.924 32.75C562.924 32.0307 562.677 31.424 562.183 30.93C561.689 30.4273 561.083 30.176 560.363 30.176C559.644 30.176 559.037 30.4273 558.543 30.93C558.049 31.424 557.802 32.0307 557.802 32.75C557.802 33.4607 558.049 34.0717 558.543 34.583ZM570.799 30.774V29.5H571.657V36H570.799V34.726C570.201 35.6793 569.325 36.156 568.173 36.156C567.245 36.156 566.452 35.8267 565.794 35.168C565.144 34.5093 564.819 33.7033 564.819 32.75C564.819 31.7967 565.144 30.9907 565.794 30.332C566.452 29.6733 567.245 29.344 568.173 29.344C569.325 29.344 570.201 29.8207 570.799 30.774ZM566.418 34.583C566.912 35.077 567.518 35.324 568.238 35.324C568.957 35.324 569.564 35.077 570.058 34.583C570.552 34.0717 570.799 33.4607 570.799 32.75C570.799 32.0307 570.552 31.424 570.058 30.93C569.564 30.4273 568.957 30.176 568.238 30.176C567.518 30.176 566.912 30.4273 566.418 30.93C565.924 31.424 565.677 32.0307 565.677 32.75C565.677 33.4607 565.924 34.0717 566.418 34.583ZM572.693 29.5H578.153V30.332H575.852V36H574.994V30.332H572.693V29.5ZM580.057 34.505L583.931 29.5H584.659V36H583.801V30.995L579.927 36H579.199V29.5H580.057V34.505ZM591.855 29.5H592.843V36H591.985V30.813L589.71 34.505H589.606L587.331 30.813V36H586.473V29.5H587.461L589.658 33.062L591.855 29.5ZM338.084 47.281C338.535 47.4717 338.89 47.762 339.15 48.152C339.41 48.542 339.54 48.9797 339.54 49.465C339.54 50.167 339.293 50.765 338.799 51.259C338.305 51.753 337.707 52 337.005 52H333.04V42.9H336.706C337.373 42.9 337.95 43.1427 338.435 43.628C338.912 44.1047 339.15 44.6767 339.15 45.344C339.15 46.1933 338.795 46.839 338.084 47.281ZM336.706 43.758H333.95V46.93H336.706C337.122 46.93 337.482 46.7783 337.785 46.475C338.088 46.1543 338.24 45.7773 338.24 45.344C338.24 44.9193 338.088 44.5467 337.785 44.226C337.482 43.914 337.122 43.758 336.706 43.758ZM333.95 51.142H337.005C337.456 51.142 337.837 50.9817 338.149 50.661C338.47 50.3403 338.63 49.9417 338.63 49.465C338.63 48.997 338.47 48.6027 338.149 48.282C337.837 47.9527 337.456 47.788 337.005 47.788H333.95V51.142ZM346.562 46.774V45.5H347.42V52H346.562V50.726C345.964 51.6793 345.088 52.156 343.936 52.156C343.008 52.156 342.215 51.8267 341.557 51.168C340.907 50.5093 340.582 49.7033 340.582 48.75C340.582 47.7967 340.907 46.9907 341.557 46.332C342.215 45.6733 343.008 45.344 343.936 45.344C345.088 45.344 345.964 45.8207 346.562 46.774ZM342.181 50.583C342.675 51.077 343.281 51.324 344.001 51.324C344.72 51.324 345.327 51.077 345.821 50.583C346.315 50.0717 346.562 49.4607 346.562 48.75C346.562 48.0307 346.315 47.424 345.821 46.93C345.327 46.4273 344.72 46.176 344.001 46.176C343.281 46.176 342.675 46.4273 342.181 46.93C341.687 47.424 341.44 48.0307 341.44 48.75C341.44 49.4607 341.687 50.0717 342.181 50.583ZM357.088 51.168V45.5H357.946V52H349.236V45.5H350.094V51.168H353.162V45.5H354.02V51.168H357.088ZM362.335 50.947L364.441 45.5H365.351L362.569 52.598C362.309 53.2567 361.945 53.7637 361.477 54.119C361.017 54.483 360.506 54.6433 359.943 54.6V53.794C360.723 53.8893 361.316 53.4387 361.724 52.442L361.893 52.039L358.981 45.5H359.891L362.335 50.947ZM375.02 45.5H376.008V52H375.15V46.813L372.875 50.505H372.771L370.496 46.813V52H369.638V45.5H370.626L372.823 49.062L375.02 45.5ZM380.829 45.344C381.8 45.344 382.575 45.6863 383.156 46.371C383.754 47.047 384.053 47.8487 384.053 48.776C384.053 48.8193 384.044 48.9537 384.027 49.179H378.32C378.407 49.829 378.684 50.349 379.152 50.739C379.62 51.129 380.205 51.324 380.907 51.324C381.895 51.324 382.593 50.9557 383 50.219L383.754 50.661C383.468 51.129 383.074 51.4973 382.571 51.766C382.077 52.026 381.518 52.156 380.894 52.156C379.871 52.156 379.039 51.8353 378.398 51.194C377.757 50.5527 377.436 49.738 377.436 48.75C377.436 47.7707 377.752 46.9603 378.385 46.319C379.018 45.669 379.832 45.344 380.829 45.344ZM380.829 46.176C380.153 46.176 379.585 46.3753 379.126 46.774C378.675 47.1727 378.407 47.697 378.32 48.347H383.169C383.074 47.6537 382.809 47.1207 382.376 46.748C381.925 46.3667 381.41 46.176 380.829 46.176ZM389.63 48.737V45.5H390.488V52H389.63V49.53C389.127 49.79 388.507 49.92 387.771 49.92C386.913 49.92 386.263 49.725 385.821 49.335C385.379 48.9363 385.158 48.3513 385.158 47.58V45.5H386.016V47.58C386.016 48.1173 386.154 48.5073 386.432 48.75C386.718 48.9927 387.155 49.114 387.745 49.114C388.403 49.114 389.032 48.9883 389.63 48.737ZM391.531 45.5H396.991V46.332H394.69V52H393.832V46.332H391.531V45.5ZM400.611 50.947L402.717 45.5H403.627L400.845 52.598C400.585 53.2567 400.221 53.7637 399.753 54.119C399.294 54.483 398.782 54.6433 398.219 54.6V53.794C398.999 53.8893 399.593 53.4387 400 52.442L400.169 52.039L397.257 45.5H398.167L400.611 50.947ZM412.048 48.659C412.759 48.919 413.114 49.426 413.114 50.18C413.114 50.7173 412.932 51.155 412.568 51.493C412.213 51.831 411.714 52 411.073 52H407.914V45.5H410.813C411.437 45.5 411.922 45.6603 412.269 45.981C412.624 46.3017 412.802 46.722 412.802 47.242C412.802 47.892 412.551 48.3643 412.048 48.659ZM410.813 46.332H408.772V48.308H410.813C411.567 48.308 411.944 47.97 411.944 47.294C411.944 46.9907 411.844 46.7567 411.645 46.592C411.454 46.4187 411.177 46.332 410.813 46.332ZM408.772 51.168H411.073C411.454 51.168 411.745 51.077 411.944 50.895C412.152 50.713 412.256 50.4573 412.256 50.128C412.256 49.816 412.152 49.5733 411.944 49.4C411.745 49.2267 411.454 49.14 411.073 49.14H408.772V51.168ZM421.148 45.344C422.075 45.344 422.864 45.6733 423.514 46.332C424.173 46.9907 424.502 47.7967 424.502 48.75C424.502 49.7033 424.173 50.5093 423.514 51.168C422.864 51.8267 422.075 52.156 421.148 52.156C419.995 52.156 419.12 51.6793 418.522 50.726V54.6H417.664V45.5H418.522V46.774C419.12 45.8207 419.995 45.344 421.148 45.344ZM419.263 50.583C419.757 51.077 420.364 51.324 421.083 51.324C421.802 51.324 422.409 51.077 422.903 50.583C423.397 50.0717 423.644 49.4607 423.644 48.75C423.644 48.0307 423.397 47.424 422.903 46.93C422.409 46.4273 421.802 46.176 421.083 46.176C420.364 46.176 419.757 46.4273 419.263 46.93C418.769 47.424 418.522 48.0307 418.522 48.75C418.522 49.4607 418.769 50.0717 419.263 50.583ZM428.932 45.344C429.902 45.344 430.678 45.6863 431.259 46.371C431.857 47.047 432.156 47.8487 432.156 48.776C432.156 48.8193 432.147 48.9537 432.13 49.179H426.423C426.509 49.829 426.787 50.349 427.255 50.739C427.723 51.129 428.308 51.324 429.01 51.324C429.998 51.324 430.695 50.9557 431.103 50.219L431.857 50.661C431.571 51.129 431.176 51.4973 430.674 51.766C430.18 52.026 429.621 52.156 428.997 52.156C427.974 52.156 427.142 51.8353 426.501 51.194C425.859 50.5527 425.539 49.738 425.539 48.75C425.539 47.7707 425.855 46.9603 426.488 46.319C427.12 45.669 427.935 45.344 428.932 45.344ZM428.932 46.176C428.256 46.176 427.688 46.3753 427.229 46.774C426.778 47.1727 426.509 47.697 426.423 48.347H431.272C431.176 47.6537 430.912 47.1207 430.479 46.748C430.028 46.3667 429.512 46.176 428.932 46.176ZM439.11 46.774V45.5H439.968V52H439.11V50.726C438.512 51.6793 437.637 52.156 436.484 52.156C435.557 52.156 434.764 51.8267 434.105 51.168C433.455 50.5093 433.13 49.7033 433.13 48.75C433.13 47.7967 433.455 46.9907 434.105 46.332C434.764 45.6733 435.557 45.344 436.484 45.344C437.637 45.344 438.512 45.8207 439.11 46.774ZM434.729 50.583C435.223 51.077 435.83 51.324 436.549 51.324C437.269 51.324 437.875 51.077 438.369 50.583C438.863 50.0717 439.11 49.4607 439.11 48.75C439.11 48.0307 438.863 47.424 438.369 46.93C437.875 46.4273 437.269 46.176 436.549 46.176C435.83 46.176 435.223 46.4273 434.729 46.93C434.235 47.424 433.988 48.0307 433.988 48.75C433.988 49.4607 434.235 50.0717 434.729 50.583ZM442.461 45.5H447.115V52H446.257V46.332H443.319V49.231C443.319 50.3143 443.111 51.0597 442.695 51.467C442.288 51.8743 441.724 52.052 441.005 52V51.194C441.508 51.246 441.876 51.1247 442.11 50.83C442.344 50.5353 442.461 50.0023 442.461 49.231V45.5ZM449.79 47.97H451.571C452.169 47.97 452.681 48.1607 453.105 48.542C453.53 48.9147 453.742 49.3957 453.742 49.985C453.742 50.583 453.53 51.0683 453.105 51.441C452.698 51.8137 452.187 52 451.571 52H448.932V45.5H449.79V47.97ZM449.79 51.168H451.571C451.944 51.168 452.256 51.0597 452.507 50.843C452.759 50.6177 452.884 50.3317 452.884 49.985C452.884 49.6383 452.759 49.3567 452.507 49.14C452.256 48.9147 451.944 48.802 451.571 48.802H449.79V51.168ZM459.641 48.334V45.5H460.499V52H459.641V49.166H455.897V52H455.039V45.5H455.897V48.334H459.641ZM467.76 51.181C467.093 51.831 466.287 52.156 465.342 52.156C464.38 52.156 463.57 51.831 462.911 51.181C462.253 50.5223 461.923 49.712 461.923 48.75C461.923 47.788 462.253 46.982 462.911 46.332C463.57 45.6733 464.38 45.344 465.342 45.344C466.296 45.344 467.102 45.6733 467.76 46.332C468.428 46.982 468.761 47.788 468.761 48.75C468.761 49.7033 468.428 50.5137 467.76 51.181ZM463.522 50.583C464.016 51.077 464.623 51.324 465.342 51.324C466.062 51.324 466.668 51.077 467.162 50.583C467.656 50.0717 467.903 49.4607 467.903 48.75C467.903 48.0307 467.656 47.424 467.162 46.93C466.668 46.4273 466.062 46.176 465.342 46.176C464.623 46.176 464.016 46.4273 463.522 46.93C463.028 47.424 462.781 48.0307 462.781 48.75C462.781 49.4607 463.028 50.0717 463.522 50.583ZM473.226 52.156C472.247 52.156 471.432 51.831 470.782 51.181C470.132 50.5137 469.807 49.7033 469.807 48.75C469.807 47.788 470.132 46.982 470.782 46.332C471.432 45.6733 472.247 45.344 473.226 45.344C473.867 45.344 474.444 45.5 474.955 45.812C475.466 46.1153 475.839 46.527 476.073 47.047L475.371 47.45C475.198 47.06 474.916 46.7523 474.526 46.527C474.145 46.293 473.711 46.176 473.226 46.176C472.507 46.176 471.9 46.4273 471.406 46.93C470.912 47.424 470.665 48.0307 470.665 48.75C470.665 49.4607 470.912 50.0717 471.406 50.583C471.9 51.077 472.507 51.324 473.226 51.324C473.703 51.324 474.132 51.2113 474.513 50.986C474.903 50.7607 475.206 50.4487 475.423 50.05L476.138 50.466C475.869 50.986 475.475 51.3977 474.955 51.701C474.435 52.0043 473.859 52.156 473.226 52.156ZM476.463 45.5H481.923V46.332H479.622V52H478.764V46.332H476.463V45.5ZM483.827 47.97H485.608C486.206 47.97 486.717 48.1607 487.142 48.542C487.566 48.9147 487.779 49.3957 487.779 49.985C487.779 50.583 487.566 51.0683 487.142 51.441C486.734 51.8137 486.223 52 485.608 52H482.969V45.5H483.827V47.97ZM483.827 51.168H485.608C485.98 51.168 486.292 51.0597 486.544 50.843C486.795 50.6177 486.921 50.3317 486.921 49.985C486.921 49.6383 486.795 49.3567 486.544 49.14C486.292 48.9147 485.98 48.802 485.608 48.802H483.827V51.168ZM490.248 51.415C490.248 51.6143 490.179 51.7833 490.04 51.922C489.901 52.0607 489.732 52.13 489.533 52.13C489.334 52.13 489.165 52.0607 489.026 51.922C488.887 51.7833 488.818 51.6143 488.818 51.415C488.818 51.2157 488.887 51.0467 489.026 50.908C489.165 50.7693 489.334 50.7 489.533 50.7C489.732 50.7 489.901 50.7693 490.04 50.908C490.179 51.0467 490.248 51.2157 490.248 51.415Z" fill="white"/>
<path d="M27.9697 2.25835L33.1752 11.2805L31.425 14.3067L26.6486 6.0411L5.25068 43.1007H14.7809L13.0307 46.1382H0L26.6599 0L27.9697 2.25835ZM38.4146 20.3478L49.7967 40.0745H46.3075L36.6644 23.3627L38.4033 20.3478H38.4146Z" fill="white"/>
<path d="M44.4891 2.25835L69.8165 46.1382H53.2854H49.7962H23.509L25.2592 43.1007H64.5771L53.8838 24.5709L43.1792 6.0411L36.6639 17.3329L34.9136 20.3591L13.5157 57.4186H56.3116L51.5464 49.1757H55.0356L61.5509 60.4561H8.27637L16.5419 46.1382L43.1905 0L44.5004 2.25835H44.4891ZM46.307 40.0745L45.6295 38.8888L36.6752 23.374L38.4254 20.3478L49.8075 40.0632H46.3183L46.307 40.0745Z" fill="white"/>
<path d="M93.0435 40.0468C90.3899 40.0468 88.1993 39.1661 86.4604 37.4045C84.7328 35.643 83.8633 33.4637 83.8633 30.8779C83.8633 28.2921 84.7328 26.0902 86.4604 24.34C88.188 22.5784 90.3899 21.709 93.0435 21.709C94.6356 21.709 96.1149 22.0816 97.4699 22.8269C98.8249 23.5721 99.875 24.5884 100.632 25.8643L97.6279 27.6033C97.1876 26.8129 96.5665 26.1918 95.7648 25.7514C94.9631 25.3111 94.0485 25.0852 93.0435 25.0852C91.3271 25.0852 89.9495 25.6272 88.8994 26.6999C87.8493 27.7727 87.3186 29.1728 87.3186 30.8892C87.3186 32.6055 87.8493 33.9718 88.8994 35.0446C89.9495 36.1173 91.3271 36.6593 93.0435 36.6593C94.0485 36.6593 94.9631 36.4334 95.7761 35.9931C96.5891 35.5527 97.2102 34.9429 97.6279 34.1638L100.632 35.9027C99.875 37.1787 98.8249 38.195 97.4812 38.9402C96.1374 39.6855 94.6582 40.0581 93.0435 40.0581V40.0468Z" fill="white"/>
<path d="M115.198 39.6979V28.9368L107.632 39.6979H104.979V22.0488H108.468V32.8438L116.022 22.0488H118.675V39.6979H115.198Z" fill="white"/>
<path d="M132.022 22.0488C133.716 22.0488 135.15 22.6247 136.313 23.7652C137.476 24.9057 138.052 26.3171 138.052 27.977C138.052 29.6369 137.476 31.0484 136.313 32.1888C135.15 33.3293 133.727 33.9052 132.022 33.9052H127.641V39.7092H124.163V22.0601H132.022V22.0488ZM132.022 30.6419C132.767 30.6419 133.377 30.3822 133.863 29.874C134.348 29.3659 134.597 28.7223 134.597 27.9657C134.597 27.2092 134.348 26.5542 133.863 26.0461C133.377 25.538 132.756 25.2896 132.022 25.2896H127.641V30.6306H132.022V30.6419Z" fill="white"/>
<path d="M151.772 39.6979V28.9368L144.206 39.6979H141.553V22.0488H145.031V32.8438L152.596 22.0488H155.25V39.6979H151.772Z" fill="white"/>
<path d="M170.482 22.0488H173.959L168.664 34.8311C167.252 38.2638 164.937 39.8785 161.708 39.6979V36.4458C162.645 36.5249 163.413 36.4007 163.989 36.0506C164.565 35.7119 165.05 35.1473 165.434 34.3794L159.664 22.0488H163.142L167.004 30.5741L170.482 22.0488Z" fill="white"/>
<path d="M185.42 40.0468C182.767 40.0468 180.576 39.1661 178.837 37.4045C177.11 35.643 176.24 33.4637 176.24 30.8779C176.24 28.2921 177.11 26.0902 178.837 24.34C180.565 22.5784 182.767 21.709 185.42 21.709C187.013 21.709 188.492 22.0816 189.847 22.8269C191.202 23.5721 192.252 24.5884 193.008 25.8643L190.005 27.6033C189.565 26.8129 188.943 26.1918 188.142 25.7514C187.34 25.3111 186.425 25.0852 185.42 25.0852C183.704 25.0852 182.326 25.6272 181.276 26.6999C180.226 27.7727 179.696 29.1728 179.696 30.8892C179.696 32.6055 180.226 33.9718 181.276 35.0446C182.326 36.1173 183.704 36.6593 185.42 36.6593C186.425 36.6593 187.34 36.4334 188.153 35.9931C188.966 35.5527 189.587 34.9429 190.005 34.1638L193.008 35.9027C192.252 37.1787 191.202 38.195 189.858 38.9402C188.514 39.6855 187.035 40.0581 185.42 40.0581V40.0468Z" fill="white"/>
<path d="M216.101 22.0488V25.3799H209.552V39.6979H206.074V22.0488H216.101Z" fill="white"/>
<path d="M248.869 22.0488H252.347L247.051 34.8311C245.64 38.2638 243.325 39.8785 240.096 39.6979V36.4458C241.033 36.5249 241.801 36.4007 242.377 36.0506C242.952 35.7119 243.438 35.1473 243.822 34.3794L238.052 22.0488H241.53L245.391 30.5741L248.869 22.0488Z" fill="white"/>
<path d="M269.634 22.0488V39.6979H266.156V25.3799H259.923V39.6979H256.445V22.0488H269.634Z" fill="white"/>
<path d="M288.3 22.0488V39.6979H284.822V25.3799H278.589V39.6979H275.111V22.0488H288.3Z" fill="white"/>
<path d="M228.285 22.0488C229.979 22.0488 231.413 22.6247 232.576 23.7652C233.739 24.9057 234.315 26.3171 234.315 27.977C234.315 29.6369 233.739 31.0484 232.576 32.1888C231.413 33.3293 229.99 33.9052 228.285 33.9052H223.904V39.7092H220.426V22.0601H228.285V22.0488ZM228.285 30.6419C229.03 30.6419 229.64 30.3822 230.125 29.874C230.611 29.3659 230.859 28.7223 230.859 27.9657C230.859 27.2092 230.611 26.5542 230.125 26.0461C229.64 25.538 229.019 25.2896 228.285 25.2896H223.904V30.6306H228.285V30.6419Z" fill="white"/>
<rect x="1390.5" y="6.5" width="49" height="49" rx="4.5" stroke="white"/>
<rect x="1403" y="22" width="24" height="2" fill="white"/>
<rect x="1403" y="30" width="11.1429" height="2" fill="white"/>
<rect x="1403" y="38" width="18.8571" height="2" fill="white"/>
</svg>
